<svg xmlns="http://www.w3.org/2000/svg" viewBox="0 0 280 280" fill="none">
  <style>
    .ob-primary { fill: #1DB954; }
    .ob-primary-light { fill: #1DB954; opacity: 0.12; }
    .ob-primary-stroke { stroke: #1DB954; stroke-width: 2; fill: none; }
    .ob-accent { fill: #F59E0B; }
    .ob-neutral { fill: #e2e8f0; }
    .ob-neutral-dark { fill: #cbd5e1; }
    @media (prefers-color-scheme: dark) {
      .ob-primary { fill: #2dd4bf; }
      .ob-primary-light { fill: #2dd4bf; opacity: 0.12; }
      .ob-primary-stroke { stroke: #2dd4bf; }
      .ob-accent { fill: #fbbf24; }
      .ob-neutral { fill: #334155; }
      .ob-neutral-dark { fill: #475569; }
    }
  </style>
  <!-- Background circle -->
  <circle class="ob-primary-light" cx="140" cy="140" r="120"/>
  <!-- Globe base -->
  <circle class="ob-neutral" cx="140" cy="140" r="80"/>
  <circle class="ob-primary-stroke" cx="140" cy="140" r="80"/>
  <!-- Longitude lines -->
  <ellipse class="ob-primary-stroke" cx="140" cy="140" rx="40" ry="80"/>
  <ellipse class="ob-primary-stroke" cx="140" cy="140" rx="65" ry="80"/>
  <!-- Latitude lines -->
  <line class="ob-primary-stroke" x1="60" y1="140" x2="220" y2="140"/>
  <line class="ob-primary-stroke" x1="68" y1="110" x2="212" y2="110"/>
  <line class="ob-primary-stroke" x1="68" y1="170" x2="212" y2="170"/>
  <!-- Poland pin (left) -->
  <circle class="ob-primary" cx="105" cy="115" r="12"/>
  <path class="ob-primary" d="M105 127 L100 140 L110 140Z"/>
  <text fill="white" x="99" y="120" font-family="Arial" font-size="12" font-weight="700">PL</text>
  <!-- Germany pin (right) -->
  <circle class="ob-accent" cx="170" cy="108" r="12"/>
  <path class="ob-accent" d="M170 120 L165 133 L175 133Z"/>
  <text fill="white" x="162" y="113" font-family="Arial" font-size="11" font-weight="700">DE</text>
  <!-- Selection indicator (checkmark on PL) -->
  <circle class="ob-primary" cx="105" cy="85" r="8" opacity="0.3"/>
  <polyline stroke="white" stroke-width="2" stroke-linecap="round" stroke-linejoin="round" points="100,85 104,89 112,81" fill="none"/>
</svg>
