<svg xmlns="http://www.w3.org/2000/svg" viewBox="0 0 280 280" fill="none">
  <style>
    .ob-primary { fill: #1DB954; }
    .ob-primary-light { fill: #1DB954; opacity: 0.12; }
    .ob-primary-stroke { stroke: #1DB954; stroke-width: 2.5; fill: none; }
    .ob-accent { fill: #F59E0B; }
    .ob-neutral { fill: #e2e8f0; }
    .ob-neutral-dark { fill: #cbd5e1; }
    .ob-warn { fill: #f59e0b; }
    @media (prefers-color-scheme: dark) {
      .ob-primary { fill: #2dd4bf; }
      .ob-primary-light { fill: #2dd4bf; opacity: 0.12; }
      .ob-primary-stroke { stroke: #2dd4bf; }
      .ob-accent { fill: #fbbf24; }
      .ob-neutral { fill: #334155; }
      .ob-neutral-dark { fill: #475569; }
      .ob-warn { fill: #fbbf24; }
    }
  </style>
  <!-- Background circle -->
  <circle class="ob-primary-light" cx="140" cy="140" r="120"/>
  <!-- Shield shape -->
  <path class="ob-neutral" d="M140 45 L210 80 L210 160 C210 200 175 230 140 245 C105 230 70 200 70 160 L70 80Z"/>
  <path class="ob-primary-stroke" d="M140 45 L210 80 L210 160 C210 200 175 230 140 245 C105 230 70 200 70 160 L70 80Z"/>
  <!-- Shield inner glow -->
  <path class="ob-primary" d="M140 60 L200 90 L200 155 C200 190 170 215 140 228 C110 215 80 190 80 155 L80 90Z" opacity="0.08"/>
  <!-- Allergen icon grid (3×2) -->
  <!-- Gluten/Wheat -->
  <circle class="ob-neutral-dark" cx="110" cy="110" r="18"/>
  <text class="ob-primary" x="103" y="116" font-family="Arial" font-size="18">🌾</text>
  <!-- Milk -->
  <circle class="ob-neutral-dark" cx="170" cy="110" r="18"/>
  <text class="ob-primary" x="163" y="116" font-family="Arial" font-size="18">🥛</text>
  <!-- Egg -->
  <circle class="ob-neutral-dark" cx="110" cy="155" r="18"/>
  <text class="ob-primary" x="103" y="161" font-family="Arial" font-size="18">🥚</text>
  <!-- Peanut -->
  <circle class="ob-neutral-dark" cx="170" cy="155" r="18"/>
  <text class="ob-primary" x="163" y="161" font-family="Arial" font-size="18">🥜</text>
  <!-- Fish -->
  <circle class="ob-neutral-dark" cx="110" cy="200" r="18"/>
  <text class="ob-primary" x="103" y="206" font-family="Arial" font-size="18">🐟</text>
  <!-- Soy -->
  <circle class="ob-neutral-dark" cx="170" cy="200" r="18"/>
  <text class="ob-primary" x="163" y="206" font-family="Arial" font-size="18">🫘</text>
  <!-- Warning badge -->
  <circle class="ob-warn" cx="210" cy="70" r="14"/>
  <text fill="white" x="205" y="77" font-family="Arial" font-size="18" font-weight="700">!</text>
</svg>
