<svg xmlns="http://www.w3.org/2000/svg" viewBox="0 0 280 280" fill="none">
  <style>
    .ob-primary { fill: #1DB954; }
    .ob-primary-light { fill: #1DB954; opacity: 0.12; }
    .ob-accent { fill: #F59E0B; }
    .ob-neutral { fill: #e2e8f0; }
    .ob-neutral-dark { fill: #cbd5e1; }
    .ob-shadow { fill: #94a3b8; opacity: 0.15; }
    @media (prefers-color-scheme: dark) {
      .ob-primary { fill: #2dd4bf; }
      .ob-primary-light { fill: #2dd4bf; opacity: 0.12; }
      .ob-accent { fill: #fbbf24; }
      .ob-neutral { fill: #334155; }
      .ob-neutral-dark { fill: #475569; }
      .ob-shadow { fill: #1e293b; opacity: 0.25; }
    }
  </style>
  <!-- Background circle -->
  <circle class="ob-primary-light" cx="140" cy="140" r="120"/>
  <!-- Shield shape (logo motif) -->
  <path class="ob-primary" d="M140 50 L200 80 L200 150 C200 190 170 220 140 235 C110 220 80 190 80 150 L80 80Z"/>
  <!-- Leaf accent on shield -->
  <path class="ob-accent" d="M140 100 C140 100 165 115 165 140 C165 155 155 165 140 165 C140 165 140 130 140 100Z"/>
  <path class="ob-accent" d="M140 100 C140 100 115 115 115 140 C115 155 125 165 140 165 C140 165 140 130 140 100Z" opacity="0.6"/>
  <!-- Food motifs around shield -->
  <!-- Apple -->
  <circle class="ob-neutral" cx="60" cy="90" r="14"/>
  <path class="ob-primary" d="M60 76 Q64 68 68 76" fill="none" stroke="#1DB954" stroke-width="2"/>
  <!-- Carrot -->
  <path class="ob-neutral" d="M220 160 L210 200 L230 200Z"/>
  <line stroke="#cbd5e1" stroke-width="1.5" x1="218" y1="175" x2="222" y2="172"/>
  <line stroke="#cbd5e1" stroke-width="1.5" x1="216" y1="185" x2="220" y2="182"/>
  <!-- Wheat -->
  <ellipse class="ob-accent" cx="68" cy="195" rx="6" ry="12" transform="rotate(-20 68 195)"/>
  <ellipse class="ob-accent" cx="78" cy="188" rx="5" ry="10" transform="rotate(-20 78 188)" opacity="0.6"/>
  <!-- Sparkle dots -->
  <circle class="ob-accent" cx="210" cy="80" r="4"/>
  <circle class="ob-accent" cx="225" cy="100" r="2.5" opacity="0.5"/>
  <circle class="ob-accent" cx="50" cy="160" r="3" opacity="0.7"/>
</svg>
