<svg xmlns="http://www.w3.org/2000/svg" viewBox="0 0 512 512" role="img" aria-label="TryVit logomark">
  <title>TryVit</title>
  <desc>TryVit shield-leaf logomark. Protective shield (trust) combined with a leaf (food/health), interior vein lines suggest data science. Brand colours: vitGreen #1DB954, vitDark #0A2E1A.</desc>

  <defs>
    <!-- Primary brand gradient — vitGreen to vitDark -->
    <linearGradient id="brand-fill" x1="0" y1="0" x2="0" y2="1">
      <stop offset="0%" stop-color="#1DB954"/>
      <stop offset="100%" stop-color="#0A2E1A"/>
    </linearGradient>
    <!-- Subtle inner highlight -->
    <linearGradient id="inner-shadow" x1="0" y1="0" x2="0" y2="1">
      <stop offset="0%" stop-color="#ffffff" stop-opacity="0.15"/>
      <stop offset="100%" stop-color="#000000" stop-opacity="0.05"/>
    </linearGradient>
  </defs>

  <!-- ═══ Shield-leaf silhouette ═══ -->
  <!-- Pointed top (leaf tip) + bulging sides (shield breadth) + pointed bottom (shield point / leaf base) -->
  <path d="
    M 256 28
    C 364 64, 444 168, 444 272
    C 444 376, 336 456, 256 488
    C 176 456, 68 376, 68 272
    C 68 168, 148 64, 256 28
    Z
  " fill="url(#brand-fill)"/>

  <!-- Depth overlay — subtle light-to-dark veil -->
  <path d="
    M 256 28
    C 364 64, 444 168, 444 272
    C 444 376, 336 456, 256 488
    C 176 456, 68 376, 68 272
    C 68 168, 148 64, 256 28
    Z
  " fill="url(#inner-shadow)"/>

  <!-- ═══ Interior vein structure ═══ -->
  <!-- Central vein — the leaf's midrib / data spine -->
  <line x1="256" y1="84" x2="256" y2="440" stroke="#ffffff" stroke-width="3.5" opacity="0.30" stroke-linecap="round"/>

  <!-- Side veins — 3 symmetric pairs, suggesting data branches / leaf venation -->
  <!-- Pair 1 (upper) -->
  <line x1="256" y1="176" x2="172" y2="236" stroke="#ffffff" stroke-width="2.5" opacity="0.22" stroke-linecap="round"/>
  <line x1="256" y1="176" x2="340" y2="236" stroke="#ffffff" stroke-width="2.5" opacity="0.22" stroke-linecap="round"/>
  <!-- Pair 2 (middle) -->
  <line x1="256" y1="256" x2="180" y2="312" stroke="#ffffff" stroke-width="2.5" opacity="0.22" stroke-linecap="round"/>
  <line x1="256" y1="256" x2="332" y2="312" stroke="#ffffff" stroke-width="2.5" opacity="0.22" stroke-linecap="round"/>
  <!-- Pair 3 (lower) -->
  <line x1="256" y1="336" x2="200" y2="380" stroke="#ffffff" stroke-width="2.5" opacity="0.22" stroke-linecap="round"/>
  <line x1="256" y1="336" x2="312" y2="380" stroke="#ffffff" stroke-width="2.5" opacity="0.22" stroke-linecap="round"/>

  <!-- ═══ Accent dot — score indicator ═══ -->
  <!-- Small circle at the leaf tip, evoking a data point / quality score marker -->
  <circle cx="256" cy="64" r="10" fill="#00E676" opacity="0.90"/>
</svg>
