<svg xmlns="http://www.w3.org/2000/svg" viewBox="0 0 96 96" width="96" height="96" aria-hidden="true">
  <title>First Scan</title>
  <!-- Ribbon -->
  <path d="M38 78l-8 16v-20h8z" fill="#F59E0B" opacity=".8"/>
  <path d="M58 78l8 16v-20h-8z" fill="#c09030" opacity=".8"/>
  <!-- Medal ring -->
  <circle cx="48" cy="44" r="32" fill="#FFD700"/>
  <circle cx="48" cy="44" r="28" fill="#FFF8DC"/>
  <circle cx="48" cy="44" r="26" fill="#FFFBF0"/>
  <!-- Inner shadow -->
  <circle cx="48" cy="44" r="26" fill="url(#fs-g)" opacity=".15"/>
  <!-- Barcode icon -->
  <rect x="33" y="32" width="3" height="24" rx="1" fill="#1DB954"/>
  <rect x="38" y="32" width="2" height="24" rx=".5" fill="#1DB954"/>
  <rect x="42" y="32" width="4" height="24" rx="1" fill="#1DB954"/>
  <rect x="48" y="32" width="2" height="24" rx=".5" fill="#1DB954"/>
  <rect x="52" y="32" width="3" height="24" rx="1" fill="#1DB954"/>
  <rect x="57" y="32" width="2" height="24" rx=".5" fill="#1DB954"/>
  <rect x="61" y="32" width="3" height="24" rx="1" fill="#1DB954"/>
  <!-- Glow -->
  <defs><radialGradient id="fs-g"><stop offset="0" stop-color="#FFD700" stop-opacity=".3"/><stop offset="1" stop-color="#FFD700" stop-opacity="0"/></radialGradient></defs>
</svg>
