<svg xmlns="http://www.w3.org/2000/svg" viewBox="0 0 96 96" width="96" height="96" aria-hidden="true">
  <title>Health Explorer</title>
  <!-- Ribbon -->
  <path d="M38 78l-8 16v-20h8z" fill="#F59E0B" opacity=".8"/>
  <path d="M58 78l8 16v-20h-8z" fill="#c09030" opacity=".8"/>
  <!-- Medal ring -->
  <circle cx="48" cy="44" r="32" fill="#FFD700"/>
  <circle cx="48" cy="44" r="28" fill="#FFF8DC"/>
  <circle cx="48" cy="44" r="26" fill="#FFFBF0"/>
  <circle cx="48" cy="44" r="26" fill="url(#he-g)" opacity=".15"/>
  <!-- Magnifying glass -->
  <circle cx="44" cy="40" r="10" fill="none" stroke="#1DB954" stroke-width="2.5"/>
  <line x1="51" y1="47" x2="60" y2="56" stroke="#1DB954" stroke-width="3" stroke-linecap="round"/>
  <!-- Magnifying glass lens highlight -->
  <path d="M39 36a6 6 0 0 1 8-2" fill="none" stroke="#1DB954" stroke-width="1.5" stroke-linecap="round" opacity=".4"/>
  <!-- Small heart inside lens -->
  <path d="M44 37c-1-2-4-2-4 0s4 5 4 5 4-3 4-5-3-2-4 0z" fill="#22c55e" opacity=".7"/>
  <defs><radialGradient id="he-g"><stop offset="0" stop-color="#FFD700" stop-opacity=".3"/><stop offset="1" stop-color="#FFD700" stop-opacity="0"/></radialGradient></defs>
</svg>
