<svg xmlns="http://www.w3.org/2000/svg" viewBox="0 0 96 96" width="96" height="96" aria-hidden="true">
  <title>List Builder</title>
  <!-- Ribbon -->
  <path d="M38 78l-8 16v-20h8z" fill="#F59E0B" opacity=".8"/>
  <path d="M58 78l8 16v-20h-8z" fill="#c09030" opacity=".8"/>
  <!-- Medal ring -->
  <circle cx="48" cy="44" r="32" fill="#FFD700"/>
  <circle cx="48" cy="44" r="28" fill="#FFF8DC"/>
  <circle cx="48" cy="44" r="26" fill="#FFFBF0"/>
  <circle cx="48" cy="44" r="26" fill="url(#lb-g)" opacity=".15"/>
  <!-- List/clipboard icon -->
  <rect x="37" y="28" width="22" height="30" rx="3" fill="none" stroke="#1DB954" stroke-width="2.5"/>
  <rect x="42" y="25" width="12" height="6" rx="2" fill="#1DB954"/>
  <!-- Checkmarks -->
  <path d="M41 38l2.5 2.5L48 36" fill="none" stroke="#22c55e" stroke-width="2" stroke-linecap="round" stroke-linejoin="round"/>
  <path d="M41 45l2.5 2.5L48 43" fill="none" stroke="#22c55e" stroke-width="2" stroke-linecap="round" stroke-linejoin="round"/>
  <path d="M41 52l2.5 2.5L48 50" fill="none" stroke="#1DB954" stroke-width="2" stroke-linecap="round" stroke-linejoin="round"/>
  <!-- Lines -->
  <line x1="51" y1="38" x2="56" y2="38" stroke="#1DB954" stroke-width="2" stroke-linecap="round"/>
  <line x1="51" y1="45" x2="56" y2="45" stroke="#1DB954" stroke-width="2" stroke-linecap="round"/>
  <line x1="51" y1="52" x2="56" y2="52" stroke="#1DB954" stroke-width="2" stroke-linecap="round"/>
  <defs><radialGradient id="lb-g"><stop offset="0" stop-color="#FFD700" stop-opacity=".3"/><stop offset="1" stop-color="#FFD700" stop-opacity="0"/></radialGradient></defs>
</svg>
