<svg xmlns="http://www.w3.org/2000/svg" viewBox="0 0 96 96" width="96" height="96" aria-hidden="true">
  <title>Profile Complete</title>
  <!-- Ribbon -->
  <path d="M38 78l-8 16v-20h8z" fill="#F59E0B" opacity=".8"/>
  <path d="M58 78l8 16v-20h-8z" fill="#c09030" opacity=".8"/>
  <!-- Medal ring -->
  <circle cx="48" cy="44" r="32" fill="#FFD700"/>
  <circle cx="48" cy="44" r="28" fill="#FFF8DC"/>
  <circle cx="48" cy="44" r="26" fill="#FFFBF0"/>
  <circle cx="48" cy="44" r="26" fill="url(#pc-g)" opacity=".15"/>
  <!-- Heart icon (health profile) -->
  <path d="M48 54c-12-8-18-14-18-20a9 9 0 0 1 18 0 9 9 0 0 1 18 0c0 6-6 12-18 20z" fill="#1DB954"/>
  <!-- Heartbeat line -->
  <path d="M37 42h5l2-4 3 8 2-4h5" fill="none" stroke="#FFFBF0" stroke-width="2" stroke-linecap="round" stroke-linejoin="round"/>
  <!-- Checkmark circle overlay -->
  <circle cx="58" cy="54" r="7" fill="#22c55e"/>
  <path d="M54.5 54l2 2 4.5-4" fill="none" stroke="white" stroke-width="2" stroke-linecap="round" stroke-linejoin="round"/>
  <defs><radialGradient id="pc-g"><stop offset="0" stop-color="#FFD700" stop-opacity=".3"/><stop offset="1" stop-color="#FFD700" stop-opacity="0"/></radialGradient></defs>
</svg>
