<svg xmlns="http://www.w3.org/2000/svg" viewBox="0 0 400 300" fill="none">
  <style>
    .card-bg { fill: #ffffff; }
    .card-border { stroke: #1DB954; stroke-width: 1.5; fill: none; }
    .icon-bg { fill: #1DB954; opacity: 0.1; }
    .icon-fill { fill: #1DB954; }
    .title { font-family: system-ui, -apple-system, sans-serif; font-size: 18px; font-weight: 700; fill: #0f172a; }
    .desc { font-family: system-ui, -apple-system, sans-serif; font-size: 13px; fill: #475569; }
    .stat { font-family: system-ui, -apple-system, sans-serif; font-size: 11px; font-weight: 600; fill: #1DB954; }
    .pill-bg { fill: #f0fdfa; stroke: #1DB954; stroke-width: 0.8; }
    .pill-text { font-family: system-ui, sans-serif; font-size: 9px; fill: #1DB954; }
    .badge-warn { fill: #fef3c7; stroke: #F59E0B; stroke-width: 0.8; }
    .badge-ok { fill: #dcfce7; stroke: #16a34a; stroke-width: 0.8; }
    .badge-text-warn { font-family: system-ui, sans-serif; font-size: 8px; font-weight: 600; fill: #92400e; }
    .badge-text-ok { font-family: system-ui, sans-serif; font-size: 8px; font-weight: 600; fill: #166534; }
    .line-sep { stroke: #e2e8f0; stroke-width: 0.5; }
    .ingr-name { font-family: system-ui, sans-serif; font-size: 10px; fill: #334155; }
    .ingr-flag { font-family: system-ui, sans-serif; font-size: 8px; fill: #94a3b8; }
    @media (prefers-color-scheme: dark) {
      .card-bg { fill: #1e293b; }
      .card-border { stroke: #2dd4bf; }
      .icon-bg { fill: #2dd4bf; opacity: 0.15; }
      .icon-fill { fill: #2dd4bf; }
      .title { fill: #f1f5f9; }
      .desc { fill: #94a3b8; }
      .stat { fill: #2dd4bf; }
      .pill-bg { fill: #134e4a; stroke: #2dd4bf; }
      .pill-text { fill: #2dd4bf; }
      .badge-warn { fill: #451a03; stroke: #fbbf24; }
      .badge-ok { fill: #052e16; stroke: #22c55e; }
      .badge-text-warn { fill: #fbbf24; }
      .badge-text-ok { fill: #4ade80; }
      .line-sep { stroke: #334155; }
      .ingr-name { fill: #cbd5e1; }
      .ingr-flag { fill: #64748b; }
    }
  </style>
  <rect class="card-bg" x="0.75" y="0.75" width="398.5" height="298.5" rx="16"/>
  <rect class="card-border" x="0.75" y="0.75" width="398.5" height="298.5" rx="16"/>
  <!-- Icon: flask -->
  <circle class="icon-bg" cx="40" cy="40" r="24"/>
  <path class="icon-fill" d="M36 28h8v8l6 10a2 2 0 0 1-1.7 3H31.7a2 2 0 0 1-1.7-3l6-10zm2 2v6.5l-5 8.5h14l-5-8.5V30z" transform="translate(0,2)"/>
  <!-- Title -->
  <text class="title" x="72" y="44">Ingredient Intelligence</text>
  <!-- Description -->
  <text class="desc" x="24" y="76">2,995 unique ingredients analyzed. EFSA 4-tier</text>
  <text class="desc" x="24" y="92">additive classification with concern scoring.</text>
  <!-- Mini visual: ingredient list with badges -->
  <g transform="translate(24,112)">
    <!-- Row 1 -->
    <text class="ingr-name" x="0" y="12">Citric acid (E330)</text>
    <rect class="badge-ok" x="130" y="2" width="56" height="15" rx="7"/>
    <text class="badge-text-ok" x="140" y="13">No concern</text>
    <rect class="pill-bg" x="195" y="2" width="50" height="15" rx="7"/>
    <text class="pill-text" x="204" y="13">Tier 0</text>
    <line class="line-sep" x1="0" y1="22" x2="350" y2="22"/>
    <!-- Row 2 -->
    <text class="ingr-name" x="0" y="38">Sodium nitrite (E250)</text>
    <rect class="badge-warn" x="130" y="28" width="68" height="15" rx="7"/>
    <text class="badge-text-warn" x="138" y="39">High concern</text>
    <rect class="pill-bg" x="207" y="28" width="50" height="15" rx="7"/>
    <text class="pill-text" x="216" y="39">Tier 3</text>
    <line class="line-sep" x1="0" y1="48" x2="350" y2="48"/>
    <!-- Row 3 -->
    <text class="ingr-name" x="0" y="64">Lecithins (E322)</text>
    <rect class="badge-ok" x="130" y="54" width="56" height="15" rx="7"/>
    <text class="badge-text-ok" x="140" y="65">No concern</text>
    <rect class="pill-bg" x="195" y="54" width="50" height="15" rx="7"/>
    <text class="pill-text" x="204" y="65">Tier 0</text>
    <line class="line-sep" x1="0" y1="74" x2="350" y2="74"/>
    <!-- Row 4 -->
    <text class="ingr-name" x="0" y="90">Caramel color (E150d)</text>
    <rect class="badge-warn" x="130" y="80" width="80" height="15" rx="7"/>
    <text class="badge-text-warn" x="136" y="91">Moderate concern</text>
    <rect class="pill-bg" x="219" y="80" width="50" height="15" rx="7"/>
    <text class="pill-text" x="228" y="91">Tier 2</text>
    <line class="line-sep" x1="0" y1="100" x2="350" y2="100"/>
    <!-- Row 5 -->
    <text class="ingr-name" x="0" y="116">Palm oil</text>
    <rect class="badge-warn" x="130" y="106" width="62" height="15" rx="7"/>
    <text class="badge-text-warn" x="137" y="117">Controversy</text>
    <text class="ingr-flag" x="200" y="117">🌴 environmental</text>
  </g>
  <text class="stat" x="24" y="282">2,995 ingredients · 4 concern tiers · EFSA-based</text>
</svg>
