<svg xmlns="http://www.w3.org/2000/svg" viewBox="0 0 400 300" fill="none">
  <style>
    .card-bg { fill: #ffffff; }
    .card-border { stroke: #1DB954; stroke-width: 1.5; fill: none; rx: 16; }
    .icon-bg { fill: #1DB954; opacity: 0.1; }
    .icon-fill { fill: #1DB954; }
    .title { font-family: system-ui, -apple-system, sans-serif; font-size: 18px; font-weight: 700; fill: #0f172a; }
    .desc { font-family: system-ui, -apple-system, sans-serif; font-size: 13px; fill: #475569; }
    .stat { font-family: system-ui, -apple-system, sans-serif; font-size: 11px; font-weight: 600; fill: #1DB954; }
    .bar-track { fill: #e2e8f0; rx: 3; }
    .bar-green { fill: #16a34a; rx: 3; }
    .bar-yellow { fill: #F59E0B; rx: 3; }
    .bar-orange { fill: #ea580c; rx: 3; }
    .bar-red { fill: #dc2626; rx: 3; }
    .gauge-ring { stroke: #e2e8f0; stroke-width: 8; fill: none; }
    .gauge-value { stroke: #1DB954; stroke-width: 8; fill: none; stroke-linecap: round; }
    .gauge-text { font-family: system-ui, sans-serif; font-size: 20px; font-weight: 700; fill: #1DB954; text-anchor: middle; }
    .gauge-label { font-family: system-ui, sans-serif; font-size: 9px; fill: #94a3b8; text-anchor: middle; }
    .factor { font-family: system-ui, sans-serif; font-size: 9px; fill: #64748b; }
    @media (prefers-color-scheme: dark) {
      .card-bg { fill: #1e293b; }
      .card-border { stroke: #2dd4bf; }
      .icon-bg { fill: #2dd4bf; opacity: 0.15; }
      .icon-fill { fill: #2dd4bf; }
      .title { fill: #f1f5f9; }
      .desc { fill: #94a3b8; }
      .stat { fill: #2dd4bf; }
      .bar-track { fill: #334155; }
      .gauge-ring { stroke: #334155; }
      .gauge-value { stroke: #2dd4bf; }
      .gauge-text { fill: #2dd4bf; }
      .gauge-label { fill: #64748b; }
      .factor { fill: #94a3b8; }
    }
  </style>
  <!-- Card background -->
  <rect class="card-bg" x="0.75" y="0.75" width="398.5" height="298.5" rx="16"/>
  <rect class="card-border" x="0.75" y="0.75" width="398.5" height="298.5" rx="16"/>
  <!-- Icon -->
  <circle class="icon-bg" cx="40" cy="40" r="24"/>
  <path class="icon-fill" d="M33 32 a1 1 0 0 1 1-1h12a1 1 0 0 1 1 1v2h-14zm0 4h14v8a2 2 0 0 1-2 2h-10a2 2 0 0 1-2-2zm3 2v4h2v-4zm4 0v4h2v-4z" transform="translate(0,2)"/>
  <!-- Title -->
  <text class="title" x="72" y="44">9-Factor Health Score</text>
  <!-- Description -->
  <text class="desc" x="24" y="76">Every product scored 1–100 using 9 weighted nutrition</text>
  <text class="desc" x="24" y="92">and ingredient factors. Science-driven, transparent.</text>
  <!-- Mini visual: gauge + factor bars -->
  <g transform="translate(60,120)">
    <!-- Gauge -->
    <circle class="gauge-ring" cx="55" cy="55" r="40"/>
    <circle class="gauge-value" cx="55" cy="55" r="40"
      stroke-dasharray="188 252" stroke-dashoffset="63"
      transform="rotate(-90 55 55)"/>
    <text class="gauge-text" x="55" y="60">27</text>
    <text class="gauge-label" x="55" y="73">/ 100</text>
  </g>
  <g transform="translate(190,130)">
    <!-- Factor bars -->
    <text class="factor" x="0" y="8">Sat Fat</text>
    <rect class="bar-track" x="55" y="0" width="120" height="10"/>
    <rect class="bar-green" x="55" y="0" width="36" height="10"/>
    <text class="factor" x="0" y="26">Sugars</text>
    <rect class="bar-track" x="55" y="18" width="120" height="10"/>
    <rect class="bar-yellow" x="55" y="18" width="72" height="10"/>
    <text class="factor" x="0" y="44">Salt</text>
    <rect class="bar-track" x="55" y="36" width="120" height="10"/>
    <rect class="bar-orange" x="55" y="36" width="48" height="10"/>
    <text class="factor" x="0" y="62">Calories</text>
    <rect class="bar-track" x="55" y="54" width="120" height="10"/>
    <rect class="bar-green" x="55" y="54" width="24" height="10"/>
    <text class="factor" x="0" y="80">Additives</text>
    <rect class="bar-track" x="55" y="72" width="120" height="10"/>
    <rect class="bar-red" x="55" y="72" width="96" height="10"/>
  </g>
  <!-- Bottom stat -->
  <text class="stat" x="24" y="282">1,281 products · 25 categories · PL + DE</text>
</svg>
