<svg xmlns="http://www.w3.org/2000/svg" id="my-svg" width="100%" aria-roledescription="flowchart-v2" class="flowchart" style="font-family:&quot;trebuchet ms&quot;,verdana,arial,sans-serif;font-size:13px;fill:#0f172a;max-width:11637px;background-color:transparent" viewBox="0 0 11636.984 264"><style><![CDATA[@keyframes edge-animation-frame{0%{stroke-dashoffset:0}}@keyframes dash{to{stroke-dashoffset:0}}#my-svg .edge-thickness-normal{stroke-width:1px}#my-svg .edge-pattern-solid{stroke-dasharray:0}#my-svg .marker{fill:#475569;stroke:#475569}#my-svg .marker.cross{stroke:#475569}#my-svg .label,#my-svg svg{font-family:"trebuchet ms",verdana,arial,sans-serif}#my-svg svg{font-size:13px}#my-svg p{margin:0}#my-svg .label{color:#fff}#my-svg .cluster span,#my-svg .cluster-label span{color:#1d170f}#my-svg .cluster-label span p{background-color:transparent}#my-svg span{fill:#fff;color:#fff}#my-svg .node circle,#my-svg .node path,#my-svg .node rect{fill:#1DB954;stroke:#0A2E1A;stroke-width:1px}#my-svg .flowchart-link{stroke:#475569;fill:none}#my-svg .edgeLabel,#my-svg .node .label{text-align:center}#my-svg .edgeLabel,#my-svg .edgeLabel p,#my-svg .edgeLabel rect{background-color:#f1f5f9}#my-svg .edgeLabel rect{opacity:.5;fill:#f1f5f9}#my-svg .labelBkg{background-color:rgba(241,245,249,.5)}#my-svg .cluster rect{fill:#e2e8f0;stroke:#cfcfcf;stroke-width:1px}#my-svg :root{--mermaid-font-family:"trebuchet ms",verdana,arial,sans-serif}#my-svg .root span,#my-svg .root>*{fill:#1DB954!important;stroke:#0A2E1A!important;color:#fff!important}#my-svg .integrity>*{fill:#dbeafe!important;stroke:#3b82f6!important;color:#1e3a5f!important}#my-svg .scoring>*{fill:#fef3c7!important;stroke:#d97706!important;color:#78350f!important}#my-svg .api>*{fill:#dcfce7!important;stroke:#16a34a!important;color:#14532d!important}#my-svg .security>*{fill:#fee2e2!important;stroke:#dc2626!important;color:#7f1d1d!important}#my-svg .user>*{fill:#fce7f3!important;stroke:#db2777!important;color:#831843!important}#my-svg .infra>*{fill:#f1f5f9!important;stroke:#94a3b8!important;color:#334155!important}#my-svg .multi>*{fill:#e0e7ff!important;stroke:#6366f1!important;color:#312e81!important}#my-svg .perf>*{fill:#fff7ed!important;stroke:#ea580c!important;color:#7c2d12!important}#my-svg .other>*{fill:#f0fdf4!important;stroke:#22c55e!important;color:#14532d!important}#my-svg .meta>*{fill:#faf5ff!important;stroke:#a855f7!important;color:#581c87!important}#my-svg .neg>*{fill:#fef2f2!important;stroke:#b91c1c!important;color:#991b1b!important}]]></style><marker id="my-svg_flowchart-v2-pointEnd" class="marker flowchart-v2" markerHeight="8" markerUnits="userSpaceOnUse" markerWidth="8" orient="auto" refX="5" refY="5" viewBox="0 0 10 10"><path d="m0 0 10 5-10 5z" class="arrowMarkerPath" style="stroke-width:1;stroke-dasharray:1,0"/></marker><marker id="my-svg_flowchart-v2-pointStart" class="marker flowchart-v2" markerHeight="8" markerUnits="userSpaceOnUse" markerWidth="8" orient="auto" refX="4.5" refY="5" viewBox="0 0 10 10"><path d="m0 5 10 5V0z" class="arrowMarkerPath" style="stroke-width:1;stroke-dasharray:1,0"/></marker><marker id="my-svg_flowchart-v2-circleEnd" class="marker flowchart-v2" markerHeight="11" markerUnits="userSpaceOnUse" markerWidth="11" orient="auto" refX="11" refY="5" viewBox="0 0 10 10"><circle cx="5" cy="5" r="5" class="arrowMarkerPath" style="stroke-width:1;stroke-dasharray:1,0"/></marker><marker id="my-svg_flowchart-v2-circleStart" class="marker flowchart-v2" markerHeight="11" markerUnits="userSpaceOnUse" markerWidth="11" orient="auto" refX="-1" refY="5" viewBox="0 0 10 10"><circle cx="5" cy="5" r="5" class="arrowMarkerPath" style="stroke-width:1;stroke-dasharray:1,0"/></marker><marker id="my-svg_flowchart-v2-crossEnd" class="marker cross flowchart-v2" markerHeight="11" markerUnits="userSpaceOnUse" markerWidth="11" orient="auto" refX="12" refY="5.2" viewBox="0 0 11 11"><path d="m1 1 9 9m0-9-9 9" class="arrowMarkerPath" style="stroke-width:2;stroke-dasharray:1,0"/></marker><marker id="my-svg_flowchart-v2-crossStart" class="marker cross flowchart-v2" markerHeight="11" markerUnits="userSpaceOnUse" markerWidth="11" orient="auto" refX="-1" refY="5.2" viewBox="0 0 11 11"><path d="m1 1 9 9m0-9-9 9" class="arrowMarkerPath" style="stroke-width:2;stroke-dasharray:1,0"/></marker><g class="root"><g class="edgePaths"><path id="L_ROOT_DI_0" marker-end="url(#my-svg_flowchart-v2-pointEnd)" d="m5954.342 36.102-879.196 8.483c-879.197 8.483-2637.589 25.449-3516.786 39.057C679.164 97.25 679.164 107.5 679.164 112.625v5.125" class="edge-thickness-normal edge-pattern-solid edge-thickness-normal edge-pattern-solid flowchart-link" data-edge="true" data-et="edge" data-id="L_ROOT_DI_0" data-points="W3sieCI6NTk1NC4zNDE5OTUyMzkyNTgsInkiOjM2LjEwMjIxMjM1MTU5NzA5Nn0seyJ4Ijo2NzkuMTY0MDYyNSwieSI6ODd9LHsieCI6Njc5LjE2NDA2MjUsInkiOjEyMS43NX1d"/><path id="L_ROOT_SCORE_0" marker-end="url(#my-svg_flowchart-v2-pointEnd)" d="m5954.342 36.412-682.121 8.431C4590.1 53.275 3225.859 70.137 2543.738 83.694s-682.121 23.806-682.121 28.931v5.125" class="edge-thickness-normal edge-pattern-solid edge-thickness-normal edge-pattern-solid flowchart-link" data-edge="true" data-et="edge" data-id="L_ROOT_SCORE_0" data-points="W3sieCI6NTk1NC4zNDE5OTUyMzkyNTgsInkiOjM2LjQxMjAxMTg2MjE5OTE4fSx7IngiOjE4NjEuNjE3MTg3NSwieSI6ODd9LHsieCI6MTg2MS42MTcxODc1LCJ5IjoxMjEuNzV9XQ=="/><path id="L_ROOT_API_0" marker-end="url(#my-svg_flowchart-v2-pointEnd)" d="m5954.342 36.82-524.889 8.363c-524.889 8.364-1574.667 25.09-2099.556 38.579-524.889 13.488-524.889 23.738-524.889 28.863v5.125" class="edge-thickness-normal edge-pattern-solid edge-thickness-normal edge-pattern-solid flowchart-link" data-edge="true" data-et="edge" data-id="L_ROOT_API_0" data-points="W3sieCI6NTk1NC4zNDE5OTUyMzkyNTgsInkiOjM2LjgyMDE3Nzk1ODExMTJ9LHsieCI6MjgwNS4wMDc4MTI1LCJ5Ijo4N30seyJ4IjoyODA1LjAwNzgxMjUsInkiOjEyMS43NX1d"/><path id="L_ROOT_SEC_0" marker-end="url(#my-svg_flowchart-v2-pointEnd)" d="m5954.342 37.536-371.299 8.244c-371.299 8.244-1113.898 24.732-1485.197 38.101s-371.299 23.619-371.299 28.744v5.125" class="edge-thickness-normal edge-pattern-solid edge-thickness-normal edge-pattern-solid flowchart-link" data-edge="true" data-et="edge" data-id="L_ROOT_SEC_0" data-points="W3sieCI6NTk1NC4zNDE5OTUyMzkyNTgsInkiOjM3LjUzNjM3ODk0MzUxNjkxNX0seyJ4IjozNzI2LjU0Njg3NSwieSI6ODd9LHsieCI6MzcyNi41NDY4NzUsInkiOjEyMS43NX1d"/><path id="L_ROOT_USER_0" marker-end="url(#my-svg_flowchart-v2-pointEnd)" d="m5954.342 39.599-196.218 7.9C5561.905 55.4 5169.468 71.2 4973.25 84.225s-196.219 23.275-196.219 28.4v5.125" class="edge-thickness-normal edge-pattern-solid edge-thickness-normal edge-pattern-solid flowchart-link" data-edge="true" data-et="edge" data-id="L_ROOT_USER_0" data-points="W3sieCI6NTk1NC4zNDE5OTUyMzkyNTgsInkiOjM5LjU5OTM1MjAzNDc5MDUzfSx7IngiOjQ3NzcuMDMxMjUsInkiOjg3fSx7IngiOjQ3NzcuMDMxMjUsInkiOjEyMS43NX1d"/><path id="L_ROOT_INFRA_0" marker-end="url(#my-svg_flowchart-v2-pointEnd)" d="M6068.578 62v55.75" class="edge-thickness-normal edge-pattern-solid edge-thickness-normal edge-pattern-solid flowchart-link" data-edge="true" data-et="edge" data-id="L_ROOT_INFRA_0" data-points="W3sieCI6NjA2OC41NzgxMjUsInkiOjYyfSx7IngiOjYwNjguNTc4MTI1LCJ5Ijo4N30seyJ4Ijo2MDY4LjU3ODEyNSwieSI6MTIxLjc1fV0="/><path id="L_ROOT_MULTI_0" marker-end="url(#my-svg_flowchart-v2-pointEnd)" d="m6182.814 40.492 161.247 7.751c161.247 7.751 483.742 23.254 644.989 36.131s161.247 23.126 161.247 28.251v5.125" class="edge-thickness-normal edge-pattern-solid edge-thickness-normal edge-pattern-solid flowchart-link" data-edge="true" data-et="edge" data-id="L_ROOT_MULTI_0" data-points="W3sieCI6NjE4Mi44MTQyNTQ3NjA3NDIsInkiOjQwLjQ5MTUxODcwMzUwNjQzfSx7IngiOjcxNTAuMjk2ODc1LCJ5Ijo4N30seyJ4Ijo3MTUwLjI5Njg3NSwieSI6MTIxLjc1fV0="/><path id="L_ROOT_PERF_0" marker-end="url(#my-svg_flowchart-v2-pointEnd)" d="m6182.814 38.058 304.695 8.157c304.695 8.157 914.085 24.471 1218.78 37.753s304.695 23.532 304.695 28.657v5.125" class="edge-thickness-normal edge-pattern-solid edge-thickness-normal edge-pattern-solid flowchart-link" data-edge="true" data-et="edge" data-id="L_ROOT_PERF_0" data-points="W3sieCI6NjE4Mi44MTQyNTQ3NjA3NDIsInkiOjM4LjA1ODIwNjE1NDEyMzgzfSx7IngiOjgwMTAuOTg0Mzc1LCJ5Ijo4N30seyJ4Ijo4MDEwLjk4NDM3NSwieSI6MTIxLjc1fV0="/><path id="L_ROOT_OTHER_0" marker-end="url(#my-svg_flowchart-v2-pointEnd)" d="m6182.814 36.948 489.133 8.342c489.132 8.342 1467.397 25.026 1956.53 38.493 489.132 13.467 489.132 23.717 489.132 28.842v5.125" class="edge-thickness-normal edge-pattern-solid edge-thickness-normal edge-pattern-solid flowchart-link" data-edge="true" data-et="edge" data-id="L_ROOT_OTHER_0" data-points="W3sieCI6NjE4Mi44MTQyNTQ3NjA3NDIsInkiOjM2Ljk0ODI1MTE4NTUzOTIwNn0seyJ4Ijo5MTE3LjYwOTM3NSwieSI6ODd9LHsieCI6OTExNy42MDkzNzUsInkiOjEyMS43NX1d"/><path id="L_ROOT_META_0" marker-end="url(#my-svg_flowchart-v2-pointEnd)" d="m6182.814 36.338 720.677 8.444c720.677 8.444 2162.03 25.331 2882.707 37.274s720.677 18.944 720.677 22.444v3.5" class="edge-thickness-normal edge-pattern-solid edge-thickness-normal edge-pattern-solid flowchart-link" data-edge="true" data-et="edge" data-id="L_ROOT_META_0" data-points="W3sieCI6NjE4Mi44MTQyNTQ3NjA3NDIsInkiOjM2LjMzODQxNDAxNjY1MTA2fSx7IngiOjEwNTA2Ljg3NSwieSI6ODd9LHsieCI6MTA1MDYuODc1LCJ5IjoxMTJ9XQ=="/><path id="L_ROOT_NEG_0" marker-end="url(#my-svg_flowchart-v2-pointEnd)" d="m6182.814 36.101 880.195 8.483c880.195 8.483 2640.585 25.45 3520.78 37.433s880.195 18.983 880.195 22.483v3.5" class="edge-thickness-normal edge-pattern-solid edge-thickness-normal edge-pattern-solid flowchart-link" data-edge="true" data-et="edge" data-id="L_ROOT_NEG_0" data-points="W3sieCI6NjE4Mi44MTQyNTQ3NjA3NDIsInkiOjM2LjEwMDk4ODIyNDQ4NDIyNn0seyJ4IjoxMTQ2My45ODQzNzUsInkiOjg3fSx7IngiOjExNDYzLjk4NDM3NSwieSI6MTEyfV0="/></g><g class="edgeLabels"><g class="edgeLabel"><foreignObject width="0" height="0" class="label" data-id="L_ROOT_DI_0"><div xmlns="http://www.w3.org/1999/xhtml" class="labelBkg" style="display:table-cell;white-space:nowrap;line-height:1.5;max-width:200px;text-align:center"><span class="edgeLabel"/></div></foreignObject></g><g class="edgeLabel"><foreignObject width="0" height="0" class="label" data-id="L_ROOT_SCORE_0"><div xmlns="http://www.w3.org/1999/xhtml" class="labelBkg" style="display:table-cell;white-space:nowrap;line-height:1.5;max-width:200px;text-align:center"><span class="edgeLabel"/></div></foreignObject></g><g class="edgeLabel"><foreignObject width="0" height="0" class="label" data-id="L_ROOT_API_0"><div xmlns="http://www.w3.org/1999/xhtml" class="labelBkg" style="display:table-cell;white-space:nowrap;line-height:1.5;max-width:200px;text-align:center"><span class="edgeLabel"/></div></foreignObject></g><g class="edgeLabel"><foreignObject width="0" height="0" class="label" data-id="L_ROOT_SEC_0"><div xmlns="http://www.w3.org/1999/xhtml" class="labelBkg" style="display:table-cell;white-space:nowrap;line-height:1.5;max-width:200px;text-align:center"><span class="edgeLabel"/></div></foreignObject></g><g class="edgeLabel"><foreignObject width="0" height="0" class="label" data-id="L_ROOT_USER_0"><div xmlns="http://www.w3.org/1999/xhtml" class="labelBkg" style="display:table-cell;white-space:nowrap;line-height:1.5;max-width:200px;text-align:center"><span class="edgeLabel"/></div></foreignObject></g><g class="edgeLabel"><foreignObject width="0" height="0" class="label" data-id="L_ROOT_INFRA_0"><div xmlns="http://www.w3.org/1999/xhtml" class="labelBkg" style="display:table-cell;white-space:nowrap;line-height:1.5;max-width:200px;text-align:center"><span class="edgeLabel"/></div></foreignObject></g><g class="edgeLabel"><foreignObject width="0" height="0" class="label" data-id="L_ROOT_MULTI_0"><div xmlns="http://www.w3.org/1999/xhtml" class="labelBkg" style="display:table-cell;white-space:nowrap;line-height:1.5;max-width:200px;text-align:center"><span class="edgeLabel"/></div></foreignObject></g><g class="edgeLabel"><foreignObject width="0" height="0" class="label" data-id="L_ROOT_PERF_0"><div xmlns="http://www.w3.org/1999/xhtml" class="labelBkg" style="display:table-cell;white-space:nowrap;line-height:1.5;max-width:200px;text-align:center"><span class="edgeLabel"/></div></foreignObject></g><g class="edgeLabel"><foreignObject width="0" height="0" class="label" data-id="L_ROOT_OTHER_0"><div xmlns="http://www.w3.org/1999/xhtml" class="labelBkg" style="display:table-cell;white-space:nowrap;line-height:1.5;max-width:200px;text-align:center"><span class="edgeLabel"/></div></foreignObject></g><g class="edgeLabel"><foreignObject width="0" height="0" class="label" data-id="L_ROOT_META_0"><div xmlns="http://www.w3.org/1999/xhtml" class="labelBkg" style="display:table-cell;white-space:nowrap;line-height:1.5;max-width:200px;text-align:center"><span class="edgeLabel"/></div></foreignObject></g><g class="edgeLabel"><foreignObject width="0" height="0" class="label" data-id="L_ROOT_NEG_0"><div xmlns="http://www.w3.org/1999/xhtml" class="labelBkg" style="display:table-cell;white-space:nowrap;line-height:1.5;max-width:200px;text-align:center"><span class="edgeLabel"/></div></foreignObject></g></g><g class="nodes"><g class="root"><g class="clusters" transform="translate(11290.984 104)"><g id="NEG" class="cluster neg" data-look="classic"><path d="M8 8h330v144H8z" style="fill:#fef2f2!important;stroke:#b91c1c!important"/><foreignObject width="112.984" height="19.5" class="cluster-label" transform="translate(116.508 8)"><div xmlns="http://www.w3.org/1999/xhtml" style="display:table-cell;white-space:nowrap;line-height:1.5;max-width:200px;text-align:center"><span class="nodeLabel" style="fill:#fef2f2!important;stroke:#b91c1c!important;color:#991b1b!important"><p>Negative Validation</p></span></div></foreignObject></g></g><g class="nodes" transform="translate(11290.984 104)"><g id="flowchart-NT-48" class="node default"><path d="M43 45.5h260v69H43z" class="basic label-container"/><g class="label" transform="translate(73 60.5)"><rect/><foreignObject width="200" height="39"><div xmlns="http://www.w3.org/1999/xhtml" style="display:table;white-space:break-spaces;line-height:1.5;max-width:200px;text-align:center;width:200px"><span class="nodeLabel"><p>SQL Injection\n&amp; Constraint\n23 tests</p></span></div></foreignObject></g></g></g></g><g class="root"><g class="clusters" transform="translate(9756.766 104)"><g id="META" class="cluster meta" data-look="classic"><path d="M8 8h1484.219v144H8z" style="fill:#faf5ff!important;stroke:#a855f7!important"/><foreignObject width="78.875" height="19.5" class="cluster-label" transform="translate(710.672 8)"><div xmlns="http://www.w3.org/1999/xhtml" style="display:table-cell;white-space:nowrap;line-height:1.5;max-width:200px;text-align:center"><span class="nodeLabel" style="fill:#faf5ff!important;stroke:#a855f7!important;color:#581c87!important"><p>Quality Gates</p></span></div></foreignObject></g></g><g class="nodes" transform="translate(9756.766 104)"><g id="flowchart-SC-42" class="node default"><path d="M43 45.5h260v69H43z" class="basic label-container"/><g class="label" transform="translate(73 60.5)"><rect/><foreignObject width="200" height="39"><div xmlns="http://www.w3.org/1999/xhtml" style="display:table;white-space:break-spaces;line-height:1.5;max-width:200px;text-align:center;width:200px"><span class="nodeLabel"><p>Source Coverage\n8 (non-blocking)</p></span></div></foreignObject></g></g><g id="flowchart-IQ-43" class="node default"><path d="M353 55.25h190.797v49.5H353z" class="basic label-container"/><g class="label" transform="translate(383 70.25)"><rect/><foreignObject width="130.797" height="19.5"><div xmlns="http://www.w3.org/1999/xhtml" style="display:table-cell;white-space:nowrap;line-height:1.5;max-width:200px;text-align:center"><span class="nodeLabel"><p>Ingredient Quality\n17</p></span></div></foreignObject></g></g><g id="flowchart-AI-44" class="node default"><path d="M593.797 55.25h187.297v49.5H593.797z" class="basic label-container"/><g class="label" transform="translate(623.797 70.25)"><rect/><foreignObject width="127.297" height="19.5"><div xmlns="http://www.w3.org/1999/xhtml" style="display:table-cell;white-space:nowrap;line-height:1.5;max-width:200px;text-align:center"><span class="nodeLabel"><p>Allergen Integrity\n15</p></span></div></foreignObject></g></g><g id="flowchart-AF-45" class="node default"><path d="M831.094 55.25h179.656v49.5H831.094z" class="basic label-container"/><g class="label" transform="translate(861.094 70.25)"><rect/><foreignObject width="119.656" height="19.5"><div xmlns="http://www.w3.org/1999/xhtml" style="display:table-cell;white-space:nowrap;line-height:1.5;max-width:200px;text-align:center"><span class="nodeLabel"><p>Allergen Filtering\n6</p></span></div></foreignObject></g></g><g id="flowchart-SI-46" class="node default"><path d="M1060.75 55.25h169.624v49.5H1060.75z" class="basic label-container"/><g class="label" transform="translate(1090.75 70.25)"><rect/><foreignObject width="109.625" height="19.5"><div xmlns="http://www.w3.org/1999/xhtml" style="display:table-cell;white-space:nowrap;line-height:1.5;max-width:200px;text-align:center"><span class="nodeLabel"><p>Store Integrity\n12</p></span></div></foreignObject></g></g><g id="flowchart-EA-47" class="node default"><path d="M1280.375 55.25h176.844v49.5h-176.844z" class="basic label-container"/><g class="label" transform="translate(1310.375 70.25)"><rect/><foreignObject width="116.844" height="19.5"><div xmlns="http://www.w3.org/1999/xhtml" style="display:table-cell;white-space:nowrap;line-height:1.5;max-width:200px;text-align:center"><span class="nodeLabel"><p>Explain Analysis\n10</p></span></div></foreignObject></g></g></g></g><g class="root"><g class="clusters" transform="translate(8512.453 113.75)"><g id="OTHER" class="cluster other" data-look="classic"><path d="M8 8h1194.313v124.5H8z" style="fill:#f0fdf4!important;stroke:#22c55e!important"/><foreignObject width="123.391" height="19.5" class="cluster-label" transform="translate(543.46 8)"><div xmlns="http://www.w3.org/1999/xhtml" style="display:table-cell;white-space:nowrap;line-height:1.5;max-width:200px;text-align:center"><span class="nodeLabel" style="fill:#f0fdf4!important;stroke:#22c55e!important;color:#14532d!important"><p>Specialized (5 suites)</p></span></div></foreignObject></g></g><g class="nodes" transform="translate(8512.453 113.75)"><g id="flowchart-CS-37" class="node default"><path d="M43 45.5h186.422V95H43z" class="basic label-container"/><g class="label" transform="translate(73 60.5)"><rect/><foreignObject width="126.422" height="19.5"><div xmlns="http://www.w3.org/1999/xhtml" style="display:table-cell;white-space:nowrap;line-height:1.5;max-width:200px;text-align:center"><span class="nodeLabel"><p>Confidence Score\n14</p></span></div></foreignObject></g></g><g id="flowchart-CR-38" class="node default"><path d="M279.422 45.5h186.344V95H279.422z" class="basic label-container"/><g class="label" transform="translate(309.422 60.5)"><rect/><foreignObject width="126.344" height="19.5"><div xmlns="http://www.w3.org/1999/xhtml" style="display:table-cell;white-space:nowrap;line-height:1.5;max-width:200px;text-align:center"><span class="nodeLabel"><p>Confidence Report\n7</p></span></div></foreignObject></g></g><g id="flowchart-EI-39" class="node default"><path d="M515.766 45.5h190.547V95H515.766z" class="basic label-container"/><g class="label" transform="translate(545.766 60.5)"><rect/><foreignObject width="130.547" height="19.5"><div xmlns="http://www.w3.org/1999/xhtml" style="display:table-cell;white-space:nowrap;line-height:1.5;max-width:200px;text-align:center"><span class="nodeLabel"><p>Event Intelligence\n18</p></span></div></foreignObject></g></g><g id="flowchart-PN-40" class="node default"><path d="M756.312 45.5h190.11V95h-190.11z" class="basic label-container"/><g class="label" transform="translate(786.313 60.5)"><rect/><foreignObject width="130.109" height="19.5"><div xmlns="http://www.w3.org/1999/xhtml" style="display:table-cell;white-space:nowrap;line-height:1.5;max-width:200px;text-align:center"><span class="nodeLabel"><p>Push Notifications\n14</p></span></div></foreignObject></g></g><g id="flowchart-RE-41" class="node default"><path d="M996.422 45.5h170.891V95h-170.89z" class="basic label-container"/><g class="label" transform="translate(1026.422 60.5)"><rect/><foreignObject width="110.891" height="19.5"><div xmlns="http://www.w3.org/1999/xhtml" style="display:table-cell;white-space:nowrap;line-height:1.5;max-width:200px;text-align:center"><span class="nodeLabel"><p>Recipe Integrity\n6</p></span></div></foreignObject></g></g></g></g><g class="root"><g class="clusters" transform="translate(7543.516 113.75)"><g id="PERF" class="cluster perf" data-look="classic"><path d="M8 8h918.938v124.5H8z" style="fill:#fff7ed!important;stroke:#ea580c!important"/><foreignObject width="200" height="39" class="cluster-label" transform="translate(367.469 8)"><div xmlns="http://www.w3.org/1999/xhtml" style="display:table;white-space:break-spaces;line-height:1.5;max-width:200px;text-align:center;width:200px"><span class="nodeLabel" style="fill:#fff7ed!important;stroke:#ea580c!important;color:#7c2d12!important"><p>Performance (4 suites, non-blocking)</p></span></div></foreignObject></g></g><g class="nodes" transform="translate(7543.516 113.75)"><g id="flowchart-PR-33" class="node default"><path d="M43 45.5h171.938V95H43z" class="basic label-container"/><g class="label" transform="translate(73 60.5)"><rect/><foreignObject width="111.938" height="19.5"><div xmlns="http://www.w3.org/1999/xhtml" style="display:table-cell;white-space:nowrap;line-height:1.5;max-width:200px;text-align:center"><span class="nodeLabel"><p>Perf. Regression\n6</p></span></div></foreignObject></g></g><g id="flowchart-IV-34" class="node default"><path d="M264.938 45.5h188.219V95h-188.22z" class="basic label-container"/><g class="label" transform="translate(294.938 60.5)"><rect/><foreignObject width="128.219" height="19.5"><div xmlns="http://www.w3.org/1999/xhtml" style="display:table-cell;white-space:nowrap;line-height:1.5;max-width:200px;text-align:center"><span class="nodeLabel"><p>Index Verification\n13</p></span></div></foreignObject></g></g><g id="flowchart-SQ-35" class="node default"><path d="M503.156 45.5h160.109V95h-160.11z" class="basic label-container"/><g class="label" transform="translate(533.156 60.5)"><rect/><foreignObject width="100.109" height="19.5"><div xmlns="http://www.w3.org/1999/xhtml" style="display:table-cell;white-space:nowrap;line-height:1.5;max-width:200px;text-align:center"><span class="nodeLabel"><p>Slow Queries\n12</p></span></div></foreignObject></g></g><g id="flowchart-MV-36" class="node default"><path d="M713.266 45.5h178.672V95H713.266z" class="basic label-container"/><g class="label" transform="translate(743.266 60.5)"><rect/><foreignObject width="118.672" height="19.5"><div xmlns="http://www.w3.org/1999/xhtml" style="display:table-cell;white-space:nowrap;line-height:1.5;max-width:200px;text-align:center"><span class="nodeLabel"><p>MV Refresh Cost\n10</p></span></div></foreignObject></g></g></g></g><g class="root"><g class="clusters" transform="translate(6791.078 113.75)"><g id="MULTI" class="cluster multi" data-look="classic"><path d="M8 8h702.438v124.5H8z" style="fill:#e0e7ff!important;stroke:#6366f1!important"/><foreignObject width="131.484" height="19.5" class="cluster-label" transform="translate(293.477 8)"><div xmlns="http://www.w3.org/1999/xhtml" style="display:table-cell;white-space:nowrap;line-height:1.5;max-width:200px;text-align:center"><span class="nodeLabel" style="fill:#e0e7ff!important;stroke:#6366f1!important;color:#312e81!important"><p>Multi-Market (3 suites)</p></span></div></foreignObject></g></g><g class="nodes" transform="translate(6791.078 113.75)"><g id="flowchart-CI-30" class="node default"><path d="M43 45.5h184.313V95H43z" class="basic label-container"/><g class="label" transform="translate(73 60.5)"><rect/><foreignObject width="124.313" height="19.5"><div xmlns="http://www.w3.org/1999/xhtml" style="display:table-cell;white-space:nowrap;line-height:1.5;max-width:200px;text-align:center"><span class="nodeLabel"><p>Country Isolation\n11</p></span></div></foreignObject></g></g><g id="flowchart-MCC-31" class="node default"><path d="M277.313 45.5h164.734V95H277.313z" class="basic label-container"/><g class="label" transform="translate(307.313 60.5)"><rect/><foreignObject width="104.734" height="19.5"><div xmlns="http://www.w3.org/1999/xhtml" style="display:table-cell;white-space:nowrap;line-height:1.5;max-width:200px;text-align:center"><span class="nodeLabel"><p>Multi-Country\n13</p></span></div></foreignObject></g></g><g id="flowchart-SSV-32" class="node default"><path d="M492.047 45.5h183.391V95h-183.39z" class="basic label-container"/><g class="label" transform="translate(522.047 60.5)"><rect/><foreignObject width="123.391" height="19.5"><div xmlns="http://www.w3.org/1999/xhtml" style="display:table-cell;white-space:nowrap;line-height:1.5;max-width:200px;text-align:center"><span class="nodeLabel"><p>Serving &amp; Source\n16</p></span></div></foreignObject></g></g></g></g><g class="root"><g class="clusters" transform="translate(5380.078 113.75)"><g id="INFRA" class="cluster infra" data-look="classic"><path d="M8 8h1361v124.5H8z" style="fill:#f1f5f9!important;stroke:#94a3b8!important"/><foreignObject width="138.609" height="19.5" class="cluster-label" transform="translate(619.195 8)"><div xmlns="http://www.w3.org/1999/xhtml" style="display:table-cell;white-space:nowrap;line-height:1.5;max-width:200px;text-align:center"><span class="nodeLabel" style="fill:#f1f5f9!important;stroke:#94a3b8!important;color:#334155!important"><p>Infrastructure (6 suites)</p></span></div></foreignObject></g></g><g class="nodes" transform="translate(5380.078 113.75)"><g id="flowchart-SG-24" class="node default"><path d="M43 45.5h179.438V95H43z" class="basic label-container"/><g class="label" transform="translate(73 60.5)"><rect/><foreignObject width="119.438" height="19.5"><div xmlns="http://www.w3.org/1999/xhtml" style="display:table-cell;white-space:nowrap;line-height:1.5;max-width:200px;text-align:center"><span class="nodeLabel"><p>Scale Guardrails\n23</p></span></div></foreignObject></g></g><g id="flowchart-IT-25" class="node default"><path d="M272.437 45.5H459.89V95H272.437z" class="basic label-container"/><g class="label" transform="translate(302.438 60.5)"><rect/><foreignObject width="127.453" height="19.5"><div xmlns="http://www.w3.org/1999/xhtml" style="display:table-cell;white-space:nowrap;line-height:1.5;max-width:200px;text-align:center"><span class="nodeLabel"><p>Index &amp; Temporal\n19</p></span></div></foreignObject></g></g><g id="flowchart-VC-26" class="node default"><path d="M509.89 45.5h185.438V95H509.89z" class="basic label-container"/><g class="label" transform="translate(539.89 60.5)"><rect/><foreignObject width="125.438" height="19.5"><div xmlns="http://www.w3.org/1999/xhtml" style="display:table-cell;white-space:nowrap;line-height:1.5;max-width:200px;text-align:center"><span class="nodeLabel"><p>View Consistency\n13</p></span></div></foreignObject></g></g><g id="flowchart-NC-27" class="node default"><path d="M745.328 45.5h163.78V95h-163.78z" class="basic label-container"/><g class="label" transform="translate(775.328 60.5)"><rect/><foreignObject width="103.781" height="19.5"><div xmlns="http://www.w3.org/1999/xhtml" style="display:table-cell;white-space:nowrap;line-height:1.5;max-width:200px;text-align:center"><span class="nodeLabel"><p>Naming Conv.\n12</p></span></div></foreignObject></g></g><g id="flowchart-MON-28" class="node default"><path d="M959.11 45.5H1106V95H959.11z" class="basic label-container"/><g class="label" transform="translate(989.11 60.5)"><rect/><foreignObject width="86.891" height="19.5"><div xmlns="http://www.w3.org/1999/xhtml" style="display:table-cell;white-space:nowrap;line-height:1.5;max-width:200px;text-align:center"><span class="nodeLabel"><p>Monitoring\n14</p></span></div></foreignObject></g></g><g id="flowchart-GDR-29" class="node default"><path d="M1156 45.5h178V95h-178z" class="basic label-container"/><g class="label" transform="translate(1186 60.5)"><rect/><foreignObject width="118" height="19.5"><div xmlns="http://www.w3.org/1999/xhtml" style="display:table-cell;white-space:nowrap;line-height:1.5;max-width:200px;text-align:center"><span class="nodeLabel"><p>Governance Drift\n8</p></span></div></foreignObject></g></g></g></g><g class="root"><g class="clusters" transform="translate(4207.984 113.75)"><g id="USER" class="cluster user" data-look="classic"><path d="M8 8h1122.094v124.5H8z" style="fill:#fce7f3!important;stroke:#db2777!important"/><foreignObject width="137.938" height="19.5" class="cluster-label" transform="translate(500.078 8)"><div xmlns="http://www.w3.org/1999/xhtml" style="display:table-cell;white-space:nowrap;line-height:1.5;max-width:200px;text-align:center"><span class="nodeLabel" style="fill:#fce7f3!important;stroke:#db2777!important;color:#831843!important"><p>User Features (5 suites)</p></span></div></foreignObject></g></g><g class="nodes" transform="translate(4207.984 113.75)"><g id="flowchart-AO-19" class="node default"><path d="M43 45.5h171.797V95H43z" class="basic label-container"/><g class="label" transform="translate(73 60.5)"><rect/><foreignObject width="111.797" height="19.5"><div xmlns="http://www.w3.org/1999/xhtml" style="display:table-cell;white-space:nowrap;line-height:1.5;max-width:200px;text-align:center"><span class="nodeLabel"><p>Auth &amp; Onboard\n8</p></span></div></foreignObject></g></g><g id="flowchart-HP-20" class="node default"><path d="M264.797 45.5h171.172V95H264.797z" class="basic label-container"/><g class="label" transform="translate(294.797 60.5)"><rect/><foreignObject width="111.172" height="19.5"><div xmlns="http://www.w3.org/1999/xhtml" style="display:table-cell;white-space:nowrap;line-height:1.5;max-width:200px;text-align:center"><span class="nodeLabel"><p>Health Profiles\n14</p></span></div></foreignObject></g></g><g id="flowchart-LC-21" class="node default"><path d="M485.968 45.5h180.11V95h-180.11z" class="basic label-container"/><g class="label" transform="translate(515.969 60.5)"><rect/><foreignObject width="120.109" height="19.5"><div xmlns="http://www.w3.org/1999/xhtml" style="display:table-cell;white-space:nowrap;line-height:1.5;max-width:200px;text-align:center"><span class="nodeLabel"><p>Lists &amp; Compare\n15</p></span></div></foreignObject></g></g><g id="flowchart-SS-22" class="node default"><path d="M716.078 45.5h173.625V95H716.078z" class="basic label-container"/><g class="label" transform="translate(746.078 60.5)"><rect/><foreignObject width="113.625" height="19.5"><div xmlns="http://www.w3.org/1999/xhtml" style="display:table-cell;white-space:nowrap;line-height:1.5;max-width:200px;text-align:center"><span class="nodeLabel"><p>Scanner &amp; Sub.\n15</p></span></div></foreignObject></g></g><g id="flowchart-DF-23" class="node default"><path d="M939.703 45.5h155.391V95h-155.39z" class="basic label-container"/><g class="label" transform="translate(969.703 60.5)"><rect/><foreignObject width="95.391" height="19.5"><div xmlns="http://www.w3.org/1999/xhtml" style="display:table-cell;white-space:nowrap;line-height:1.5;max-width:200px;text-align:center"><span class="nodeLabel"><p>Diet Filtering\n6</p></span></div></foreignObject></g></g></g></g><g class="root"><g class="clusters" transform="translate(3279.11 113.75)"><g id="SEC" class="cluster security" data-look="classic"><path d="M8 8h878.875v124.5H8z" style="fill:#fee2e2!important;stroke:#dc2626!important"/><foreignObject width="104.984" height="19.5" class="cluster-label" transform="translate(394.945 8)"><div xmlns="http://www.w3.org/1999/xhtml" style="display:table-cell;white-space:nowrap;line-height:1.5;max-width:200px;text-align:center"><span class="nodeLabel" style="fill:#fee2e2!important;stroke:#dc2626!important;color:#7f1d1d!important"><p>Security (4 suites)</p></span></div></foreignObject></g></g><g class="nodes" transform="translate(3279.11 113.75)"><g id="flowchart-SP-15" class="node default"><path d="M43 45.5h179.766V95H43z" class="basic label-container"/><g class="label" transform="translate(73 60.5)"><rect/><foreignObject width="119.766" height="19.5"><div xmlns="http://www.w3.org/1999/xhtml" style="display:table-cell;white-space:nowrap;line-height:1.5;max-width:200px;text-align:center"><span class="nodeLabel"><p>Security Posture\n41</p></span></div></foreignObject></g></g><g id="flowchart-RA-16" class="node default"><path d="M272.765 45.5h133.031V95h-133.03z" class="basic label-container"/><g class="label" transform="translate(302.766 60.5)"><rect/><foreignObject width="73.031" height="19.5"><div xmlns="http://www.w3.org/1999/xhtml" style="display:table-cell;white-space:nowrap;line-height:1.5;max-width:200px;text-align:center"><span class="nodeLabel"><p>RLS Audit\n7</p></span></div></foreignObject></g></g><g id="flowchart-FSA-17" class="node default"><path d="M455.797 45.5h157.422V95H455.797z" class="basic label-container"/><g class="label" transform="translate(485.797 60.5)"><rect/><foreignObject width="97.422" height="19.5"><div xmlns="http://www.w3.org/1999/xhtml" style="display:table-cell;white-space:nowrap;line-height:1.5;max-width:200px;text-align:center"><span class="nodeLabel"><p>Function Sec.\n6</p></span></div></foreignObject></g></g><g id="flowchart-GD-18" class="node default"><path d="M663.219 45.5h188.656V95H663.219z" class="basic label-container"/><g class="label" transform="translate(693.219 60.5)"><rect/><foreignObject width="128.656" height="19.5"><div xmlns="http://www.w3.org/1999/xhtml" style="display:table-cell;white-space:nowrap;line-height:1.5;max-width:200px;text-align:center"><span class="nodeLabel"><p>GDPR Compliance\n15</p></span></div></foreignObject></g></g></g></g><g class="root"><g class="clusters" transform="translate(2364.906 113.75)"><g id="API" class="cluster api" data-look="classic"><path d="M8 8h864.203v124.5H8z" style="fill:#dcfce7!important;stroke:#16a34a!important"/><foreignObject width="132.094" height="19.5" class="cluster-label" transform="translate(374.055 8)"><div xmlns="http://www.w3.org/1999/xhtml" style="display:table-cell;white-space:nowrap;line-height:1.5;max-width:200px;text-align:center"><span class="nodeLabel" style="fill:#dcfce7!important;stroke:#16a34a!important;color:#14532d!important"><p>API &amp; Search (4 suites)</p></span></div></foreignObject></g></g><g class="nodes" transform="translate(2364.906 113.75)"><g id="flowchart-AS-11" class="node default"><path d="M43 45.5h156.656V95H43z" class="basic label-container"/><g class="label" transform="translate(73 60.5)"><rect/><foreignObject width="96.656" height="19.5"><div xmlns="http://www.w3.org/1999/xhtml" style="display:table-cell;white-space:nowrap;line-height:1.5;max-width:200px;text-align:center"><span class="nodeLabel"><p>API Surfaces\n18</p></span></div></foreignObject></g></g><g id="flowchart-ACT-12" class="node default"><path d="M249.657 45.5h158.297V95H249.657z" class="basic label-container"/><g class="label" transform="translate(279.656 60.5)"><rect/><foreignObject width="98.297" height="19.5"><div xmlns="http://www.w3.org/1999/xhtml" style="display:table-cell;white-space:nowrap;line-height:1.5;max-width:200px;text-align:center"><span class="nodeLabel"><p>API Contract\n33</p></span></div></foreignObject></g></g><g id="flowchart-SA-13" class="node default"><path d="M457.953 45.5h158.359V95h-158.36z" class="basic label-container"/><g class="label" transform="translate(487.953 60.5)"><rect/><foreignObject width="98.359" height="19.5"><div xmlns="http://www.w3.org/1999/xhtml" style="display:table-cell;white-space:nowrap;line-height:1.5;max-width:200px;text-align:center"><span class="nodeLabel"><p>Search Arch.\n26</p></span></div></foreignObject></g></g><g id="flowchart-BL-14" class="node default"><path d="M666.313 45.5h170.89V95h-170.89z" class="basic label-container"/><g class="label" transform="translate(696.313 60.5)"><rect/><foreignObject width="110.891" height="19.5"><div xmlns="http://www.w3.org/1999/xhtml" style="display:table-cell;white-space:nowrap;line-height:1.5;max-width:200px;text-align:center"><span class="nodeLabel"><p>Barcode Lookup\n9</p></span></div></foreignObject></g></g></g></g><g class="root"><g class="clusters" transform="translate(1392.328 113.75)"><g id="SCORE" class="cluster scoring" data-look="classic"><path d="M8 8h922.578v124.5H8z" style="fill:#fef3c7!important;stroke:#d97706!important"/><foreignObject width="99.844" height="19.5" class="cluster-label" transform="translate(419.367 8)"><div xmlns="http://www.w3.org/1999/xhtml" style="display:table-cell;white-space:nowrap;line-height:1.5;max-width:200px;text-align:center"><span class="nodeLabel" style="fill:#fef3c7!important;stroke:#d97706!important;color:#78350f!important"><p>Scoring (4 suites)</p></span></div></foreignObject></g></g><g class="nodes" transform="translate(1392.328 113.75)"><g id="flowchart-SF-7" class="node default"><path d="M43 45.5h178.75V95H43z" class="basic label-container"/><g class="label" transform="translate(73 60.5)"><rect/><foreignObject width="118.75" height="19.5"><div xmlns="http://www.w3.org/1999/xhtml" style="display:table-cell;white-space:nowrap;line-height:1.5;max-width:200px;text-align:center"><span class="nodeLabel"><p>Scoring Formula\n31</p></span></div></foreignObject></g></g><g id="flowchart-SD-8" class="node default"><path d="M271.75 45.5h179.266V95H271.75z" class="basic label-container"/><g class="label" transform="translate(301.75 60.5)"><rect/><foreignObject width="119.266" height="19.5"><div xmlns="http://www.w3.org/1999/xhtml" style="display:table-cell;white-space:nowrap;line-height:1.5;max-width:200px;text-align:center"><span class="nodeLabel"><p>Scoring Determ.\n17</p></span></div></foreignObject></g></g><g id="flowchart-SE-9" class="node default"><path d="M501.016 45.5h169.828V95H501.016z" class="basic label-container"/><g class="label" transform="translate(531.016 60.5)"><rect/><foreignObject width="109.828" height="19.5"><div xmlns="http://www.w3.org/1999/xhtml" style="display:table-cell;white-space:nowrap;line-height:1.5;max-width:200px;text-align:center"><span class="nodeLabel"><p>Scoring Engine\n25</p></span></div></foreignObject></g></g><g id="flowchart-AC-10" class="node default"><path d="M720.844 45.5h174.734V95H720.844z" class="basic label-container"/><g class="label" transform="translate(750.844 60.5)"><rect/><foreignObject width="114.734" height="19.5"><div xmlns="http://www.w3.org/1999/xhtml" style="display:table-cell;white-space:nowrap;line-height:1.5;max-width:200px;text-align:center"><span class="nodeLabel"><p>Attr. Contradict.\n5</p></span></div></foreignObject></g></g></g></g><g class="root"><g class="clusters" transform="translate(0 113.75)"><g id="DI" class="cluster integrity" data-look="classic"><path d="M8 8h1342.328v124.5H8z" style="fill:#dbeafe!important;stroke:#3b82f6!important"/><foreignObject width="138.297" height="19.5" class="cluster-label" transform="translate(610.016 8)"><div xmlns="http://www.w3.org/1999/xhtml" style="display:table-cell;white-space:nowrap;line-height:1.5;max-width:200px;text-align:center"><span class="nodeLabel" style="fill:#dbeafe!important;stroke:#3b82f6!important;color:#1e3a5f!important"><p>Data Integrity (6 suites)</p></span></div></foreignObject></g></g><g class="nodes" transform="translate(0 113.75)"><g id="flowchart-NULL-1" class="node default"><path d="M43 45.5h152.578V95H43z" class="basic label-container"/><g class="label" transform="translate(73 60.5)"><rect/><foreignObject width="92.578" height="19.5"><div xmlns="http://www.w3.org/1999/xhtml" style="display:table-cell;white-space:nowrap;line-height:1.5;max-width:200px;text-align:center"><span class="nodeLabel"><p>Null Checks\n29</p></span></div></foreignObject></g></g><g id="flowchart-DQ-2" class="node default"><path d="M245.578 45.5H403.47V95H245.58z" class="basic label-container"/><g class="label" transform="translate(275.578 60.5)"><rect/><foreignObject width="97.891" height="19.5"><div xmlns="http://www.w3.org/1999/xhtml" style="display:table-cell;white-space:nowrap;line-height:1.5;max-width:200px;text-align:center"><span class="nodeLabel"><p>Data Quality\n25</p></span></div></foreignObject></g></g><g id="flowchart-DC-3" class="node default"><path d="M453.468 45.5h184.36V95h-184.36z" class="basic label-container"/><g class="label" transform="translate(483.469 60.5)"><rect/><foreignObject width="124.359" height="19.5"><div xmlns="http://www.w3.org/1999/xhtml" style="display:table-cell;white-space:nowrap;line-height:1.5;max-width:200px;text-align:center"><span class="nodeLabel"><p>Data Consistency\n26</p></span></div></foreignObject></g></g><g id="flowchart-RI-4" class="node default"><path d="M687.828 45.5h162.813V95H687.828z" class="basic label-container"/><g class="label" transform="translate(717.828 60.5)"><rect/><foreignObject width="102.813" height="19.5"><div xmlns="http://www.w3.org/1999/xhtml" style="display:table-cell;white-space:nowrap;line-height:1.5;max-width:200px;text-align:center"><span class="nodeLabel"><p>Ref. Integrity\n18</p></span></div></foreignObject></g></g><g id="flowchart-NR-5" class="node default"><path d="M900.64 45.5h181.923V95H900.64z" class="basic label-container"/><g class="label" transform="translate(930.64 60.5)"><rect/><foreignObject width="121.922" height="19.5"><div xmlns="http://www.w3.org/1999/xhtml" style="display:table-cell;white-space:nowrap;line-height:1.5;max-width:200px;text-align:center"><span class="nodeLabel"><p>Nutrition Ranges\n18</p></span></div></foreignObject></g></g><g id="flowchart-DP-6" class="node default"><path d="M1132.562 45.5h182.766V95h-182.766z" class="basic label-container"/><g class="label" transform="translate(1162.563 60.5)"><rect/><foreignObject width="122.766" height="19.5"><div xmlns="http://www.w3.org/1999/xhtml" style="display:table-cell;white-space:nowrap;line-height:1.5;max-width:200px;text-align:center"><span class="nodeLabel"><p>Data Provenance\n28</p></span></div></foreignObject></g></g></g></g><g id="flowchart-ROOT-0" class="node default root"><g class="basic label-container outer-path"><path stroke="none" stroke-width="0" d="M-87.25-27h174.5l1.73.055 1.723.167 1.708.276 1.688.385 1.659.492 1.624.598 1.583.7 1.534.801 1.48.898 1.42.99 1.353 1.079 1.281 1.164 1.205 1.243 1.121 1.318 1.036 1.387.944 1.45.85 1.508.75 1.56.65 1.604.545 1.643.44 1.674c.093.485.188.97.33 1.699l.221 1.716.111 1.728v1.73l-.11 1.728-.222 1.716-.33 1.7-.44 1.673-.545 1.643-.65 1.604-.75 1.56-.85 1.508-.944 1.45-1.036 1.387-1.121 1.318-1.205 1.243-1.28 1.164c-.308.245-.616.49-1.354 1.08l-1.42.99-1.48.897-1.534.8-1.583.7-1.624.599-1.66.492-1.687.385-1.708.276-1.723.167-1.73.055h-174.5l-1.73-.055-1.723-.167-1.708-.276-1.688-.385-1.659-.492q-.809-.299-1.624-.598l-1.583-.7-1.534-.801-1.48-.898-1.42-.99-1.353-1.079-1.281-1.164-1.205-1.243-1.121-1.318-1.036-1.387-.944-1.45-.85-1.508c-.165-.345-.33-.689-.75-1.56l-.65-1.604-.545-1.643-.44-1.674-.33-1.699-.221-1.716-.111-1.728v-1.73l.11-1.728.222-1.716.33-1.7c.123-.463.244-.927.44-1.673l.545-1.643.65-1.604.75-1.56.85-1.508.944-1.45 1.036-1.387 1.121-1.318 1.205-1.243 1.28-1.164 1.354-1.08 1.42-.99 1.48-.897 1.534-.8 1.583-.7 1.624-.599 1.66-.492 1.687-.385 1.708-.276 1.723-.167 1.73-.055" style="fill:#1DB954!important;stroke:#0A2E1A!important" transform="translate(6068.578 35)"/><path fill="none" stroke-dasharray="0 0" stroke-width="1.3" d="M-87.25-27h174.5m-174.5 0h174.5m0 0 1.73.055M87.25-27l1.73.055m0 0c.505.05 1.01.098 1.723.167m-1.723-.167 1.723.167m0 0 1.708.276m-1.708-.276 1.708.276m0 0 1.688.385m-1.688-.385 1.688.385m0 0 1.659.492m-1.66-.492 1.66.492m0 0 1.624.598m-1.624-.598 1.624.598m0 0 1.583.7m-1.583-.7 1.583.7m0 0c.377.198.755.395 1.534.801m-1.534-.8 1.534.8m0 0 1.48.898m-1.48-.898 1.48.898m0 0c.55.382 1.098.765 1.42.99m-1.42-.99 1.42.99m0 0 1.353 1.079m-1.353-1.08 1.353 1.08m0 0c.495.45.99.898 1.281 1.164m-1.28-1.164 1.28 1.164m0 0 1.205 1.243m-1.205-1.243 1.205 1.243m0 0 1.121 1.318m-1.121-1.318 1.121 1.318m0 0 1.036 1.387m-1.036-1.387 1.036 1.387m0 0 .944 1.45m-.944-1.45.944 1.45m0 0 .85 1.508m-.85-1.508.85 1.508m0 0c.15.314.3.627.75 1.56m-.75-1.56.75 1.56m0 0 .65 1.604m-.65-1.604.65 1.604m0 0 .545 1.643m-.545-1.643.545 1.643m0 0 .44 1.674m-.44-1.674.44 1.674m0 0 .33 1.699m-.33-1.7.33 1.7m0 0 .221 1.716m-.221-1.716.221 1.716m0 0 .111 1.728m-.11-1.728.11 1.728m0 0v1.73m0-1.73v1.73m0 0-.11 1.728m.11-1.728-.11 1.728m0 0-.222 1.716m.221-1.716-.221 1.716m0 0-.33 1.7m.33-1.7-.33 1.7m0 0-.44 1.673m.44-1.674-.44 1.674m0 0-.545 1.643m.545-1.643-.545 1.643m0 0-.65 1.604m.65-1.604-.65 1.604m0 0-.75 1.56m.75-1.56-.75 1.56m0 0c-.235.415-.469.83-.85 1.508m.85-1.508c-.287.507-.573 1.015-.85 1.508m0 0-.944 1.45m.944-1.45-.944 1.45m0 0-1.036 1.387m1.036-1.387-1.036 1.387m0 0-1.121 1.318m1.121-1.318-1.121 1.318m0 0-1.205 1.243m1.205-1.243-1.205 1.243m0 0-1.28 1.164m1.28-1.164-1.28 1.164m0 0-1.354 1.08m1.353-1.08-1.353 1.08m0 0-1.42.99m1.42-.99-1.42.99m0 0-1.48.897m1.48-.898-1.48.898m0 0-1.534.8m1.534-.8-1.534.8m0 0-1.583.7m1.583-.7-1.583.7m0 0-1.624.599m1.624-.598-1.624.598m0 0-1.66.492m1.66-.492-1.66.492m0 0-1.687.385m1.688-.385-1.688.385m0 0-1.708.276m1.708-.276-1.708.276m0 0-1.723.167m1.723-.167-1.723.167m0 0L87.25 27m1.73-.055L87.25 27m0 0h-174.5m174.5 0h-174.5m0 0-1.73-.055m1.73.055-1.73-.055m0 0-1.723-.167m1.723.167-1.723-.167m0 0c-.591-.095-1.183-.19-1.708-.276m1.708.276-1.708-.276m0 0-1.688-.385m1.688.385-1.688-.385m0 0-1.659-.492m1.66.492-1.66-.492m0 0-1.624-.598m1.624.598-1.624-.598m0 0-1.583-.7m1.583.7c-.495-.22-.99-.438-1.583-.7m0 0-1.534-.801m1.534.8-1.534-.8m0 0-1.48-.898m1.48.898-1.48-.898m0 0c-.503-.35-1.006-.7-1.42-.99m1.42.99-1.42-.99m0 0-1.353-1.079m1.353 1.08-1.353-1.08m0 0c-.3-.271-.598-.543-1.281-1.164m1.28 1.164-1.28-1.164m0 0-1.205-1.243m1.205 1.243-1.205-1.243m0 0-1.121-1.318m1.121 1.318-1.121-1.318m0 0-1.036-1.387m1.036 1.387-1.036-1.387m0 0-.944-1.45m.944 1.45-.944-1.45m0 0c-.19-.339-.38-.677-.85-1.508m.85 1.508c-.204-.364-.409-.727-.85-1.508m0 0-.75-1.56m.75 1.56-.75-1.56m0 0-.65-1.604m.65 1.604-.65-1.604m0 0-.545-1.643m.545 1.643-.545-1.643m0 0-.44-1.674m.44 1.674c-.145-.554-.29-1.108-.44-1.674m0 0c-.07-.364-.14-.729-.33-1.699m.33 1.7-.33-1.7m0 0-.221-1.716m.221 1.716-.221-1.716m0 0-.111-1.728m.11 1.728-.11-1.728m0 0v-1.73m0 1.73v-1.73m0 0 .11-1.728m-.11 1.728.11-1.728m0 0 .222-1.716m-.221 1.716.221-1.716m0 0 .33-1.7m-.33 1.7.33-1.7m0 0 .44-1.673m-.44 1.674.44-1.674m0 0 .545-1.643m-.545 1.643.545-1.643m0 0 .65-1.604m-.65 1.604.65-1.604m0 0 .75-1.56m-.75 1.56.75-1.56m0 0 .85-1.508m-.85 1.508.85-1.508m0 0 .944-1.45m-.944 1.45.944-1.45m0 0 1.036-1.387m-1.036 1.387 1.036-1.387m0 0 1.121-1.318m-1.121 1.318 1.121-1.318m0 0 1.205-1.243m-1.205 1.243 1.205-1.243m0 0 1.28-1.164m-1.28 1.164 1.28-1.164m0 0 1.354-1.08m-1.353 1.08 1.353-1.08m0 0 1.42-.99m-1.42.99 1.42-.99m0 0 1.48-.897m-1.48.898 1.48-.898m0 0 1.534-.8m-1.534.8 1.534-.8m0 0 1.583-.7m-1.583.7 1.583-.7m0 0 1.624-.599m-1.624.598 1.624-.598m0 0 1.66-.492m-1.66.492 1.66-.492m0 0c.414-.095.828-.19 1.687-.385m-1.688.385 1.688-.385m0 0 1.708-.276m-1.708.276 1.708-.276m0 0 1.723-.167m-1.723.167 1.723-.167m0 0 1.73-.055m-1.73.055 1.73-.055m0 0" style="fill:#1DB954!important;stroke:#0A2E1A!important" transform="translate(6068.578 35)"/></g><g class="label" style="color:#fff!important" transform="translate(5968.578 15.5)"><rect/><foreignObject width="200" height="39"><div xmlns="http://www.w3.org/1999/xhtml" style="color:#fff!important;display:table;white-space:break-spaces;line-height:1.5;max-width:200px;text-align:center;width:200px"><span class="nodeLabel" style="color:#fff!important"><p>QA Framework\n733 Checks + 23 Neg</p></span></div></foreignObject></g></g></g></g></svg>