<svg xmlns="http://www.w3.org/2000/svg" viewBox="0 0 560 120" role="img" aria-label="TryVit">
  <title>TryVit — Horizontal Lockup</title>
  <desc>Horizontal brand lockup: logomark left, wordmark right. Clear space between icon and text equals icon height × 0.5. Switch to icon-only below 120px total width.</desc>

  <defs>
    <linearGradient id="brand-fill" x1="0" y1="0" x2="0" y2="1">
      <stop offset="0%" stop-color="#1DB954"/>
      <stop offset="100%" stop-color="#0A2E1A"/>
    </linearGradient>
  </defs>

  <!-- ═══ Logomark (scaled to 100×100, centered in 120×120 area) ═══ -->
  <svg x="10" y="10" width="100" height="100" viewBox="0 0 512 512">
    <!-- Shield-leaf silhouette -->
    <path d="M 256 28 C 364 64, 444 168, 444 272 C 444 376, 336 456, 256 488 C 176 456, 68 376, 68 272 C 68 168, 148 64, 256 28 Z" fill="url(#brand-fill)"/>
    <!-- Central vein -->
    <line x1="256" y1="84" x2="256" y2="440" stroke="#ffffff" stroke-width="3.5" opacity="0.30" stroke-linecap="round"/>
    <!-- Side veins — 3 pairs -->
    <line x1="256" y1="176" x2="172" y2="236" stroke="#ffffff" stroke-width="2.5" opacity="0.22" stroke-linecap="round"/>
    <line x1="256" y1="176" x2="340" y2="236" stroke="#ffffff" stroke-width="2.5" opacity="0.22" stroke-linecap="round"/>
    <line x1="256" y1="256" x2="180" y2="312" stroke="#ffffff" stroke-width="2.5" opacity="0.22" stroke-linecap="round"/>
    <line x1="256" y1="256" x2="332" y2="312" stroke="#ffffff" stroke-width="2.5" opacity="0.22" stroke-linecap="round"/>
    <line x1="256" y1="336" x2="200" y2="380" stroke="#ffffff" stroke-width="2.5" opacity="0.22" stroke-linecap="round"/>
    <line x1="256" y1="336" x2="312" y2="380" stroke="#ffffff" stroke-width="2.5" opacity="0.22" stroke-linecap="round"/>
    <!-- Accent dot -->
    <circle cx="256" cy="64" r="10" fill="#00E676" opacity="0.90"/>
  </svg>

  <!-- ═══ Wordmark (clear space = icon height × 0.5 = 50px from icon edge) ═══ -->
  <text
    x="160" y="72"
    font-family="'Segoe UI', system-ui, -apple-system, BlinkMacSystemFont, 'Helvetica Neue', Arial, sans-serif"
    font-size="40"
    font-weight="700"
    fill="#0A2E1A"
    letter-spacing="0.02em"
    dominant-baseline="middle"
  >TryVit</text>
</svg>
