<svg xmlns="http://www.w3.org/2000/svg" viewBox="0 0 512 512" role="img" aria-label="TryVit logomark — dark mode">
  <title>TryVit (Dark Mode)</title>
  <desc>Dark-mode shield-leaf logomark. Uses vitAccent #00E676 top to vitGreen #1DB954 base for vibrant contrast on dark surfaces (vitDark #0A2E1A).</desc>

  <defs>
    <!-- Dark-mode gradient — vitAccent to vitGreen for contrast on dark surfaces -->
    <linearGradient id="brand-fill-dark" x1="0" y1="0" x2="0" y2="1">
      <stop offset="0%" stop-color="#00E676"/>
      <stop offset="100%" stop-color="#1DB954"/>
    </linearGradient>
  </defs>

  <!-- ═══ Shield-leaf silhouette ═══ -->
  <path d="
    M 256 28
    C 364 64, 444 168, 444 272
    C 444 376, 336 456, 256 488
    C 176 456, 68 376, 68 272
    C 68 168, 148 64, 256 28
    Z
  " fill="url(#brand-fill-dark)"/>

  <!-- ═══ Interior vein structure ═══ -->
  <!-- Central vein -->
  <line x1="256" y1="84" x2="256" y2="440" stroke="#0f172a" stroke-width="3.5" opacity="0.25" stroke-linecap="round"/>

  <!-- Side veins — 3 symmetric pairs -->
  <line x1="256" y1="176" x2="172" y2="236" stroke="#0f172a" stroke-width="2.5" opacity="0.18" stroke-linecap="round"/>
  <line x1="256" y1="176" x2="340" y2="236" stroke="#0f172a" stroke-width="2.5" opacity="0.18" stroke-linecap="round"/>
  <line x1="256" y1="256" x2="180" y2="312" stroke="#0f172a" stroke-width="2.5" opacity="0.18" stroke-linecap="round"/>
  <line x1="256" y1="256" x2="332" y2="312" stroke="#0f172a" stroke-width="2.5" opacity="0.18" stroke-linecap="round"/>
  <line x1="256" y1="336" x2="200" y2="380" stroke="#0f172a" stroke-width="2.5" opacity="0.18" stroke-linecap="round"/>
  <line x1="256" y1="336" x2="312" y2="380" stroke="#0f172a" stroke-width="2.5" opacity="0.18" stroke-linecap="round"/>

  <!-- Accent dot — score indicator -->
  <circle cx="256" cy="64" r="10" fill="#F0FAF4" opacity="0.90"/>
</svg>
